<svg version="1.1" id="Layer_1" xmlns="http://www.w3.org/2000/svg" xmlns:xlink="http://www.w3.org/1999/xlink" x="0px" y="0px"
	 width="100%" viewBox="0 0 96 96" enable-background="new 0 0 96 96" xml:space="preserve">
<path fill="#000000" opacity="1.000000" stroke="none" 
	d="
M59.000000,97.000000 
	C39.333336,97.000000 20.166674,97.000000 1.000008,97.000000 
	C1.000005,65.000008 1.000005,33.000019 1.000003,1.000021 
	C32.999985,1.000014 64.999969,1.000014 96.999969,1.000007 
	C96.999977,32.999981 96.999977,64.999962 96.999985,96.999969 
	C84.500000,97.000000 72.000000,97.000000 59.000000,97.000000 
M72.971939,32.933052 
	C72.971939,41.534565 72.971939,50.136078 72.971939,58.669685 
	C60.028946,59.776474 56.920227,62.432625 57.000671,71.842117 
	C57.061550,78.962662 61.447247,83.006470 69.101540,82.999634 
	C76.660782,82.992889 80.984421,78.894455 80.993317,71.638832 
	C81.013542,55.151718 80.999878,38.664566 80.999939,22.177427 
	C80.999985,10.256625 80.938736,9.927104 69.286102,12.091774 
	C56.156586,14.530797 43.158432,17.672647 30.088940,20.441755 
	C26.382900,21.226973 24.615343,22.855667 24.879435,27.119465 
	C25.321281,34.253174 25.000074,41.434151 25.000050,48.595230 
	C25.000034,53.350288 25.000048,58.105347 25.000048,62.784470 
	C12.236644,63.483818 8.888534,66.382881 9.000696,76.013649 
	C9.079742,82.800850 13.565872,86.987183 20.773455,86.999657 
	C28.424553,87.012901 32.948166,82.955452 32.993496,75.966881 
	C33.069084,64.312630 33.106098,52.658119 33.949852,40.974850 
	C36.752789,40.317493 39.553410,39.650063 42.359077,39.004581 
	C52.518826,36.667183 62.680275,34.337162 72.971939,32.933052 
z"/>
<path fill="#9315C8" opacity="1.000000" stroke="none" 
	d="
M33.159355,41.003719 
	C33.106098,52.658119 33.069084,64.312630 32.993496,75.966881 
	C32.948166,82.955452 28.424553,87.012901 20.773455,86.999657 
	C13.565872,86.987183 9.079742,82.800850 9.000696,76.013649 
	C8.888534,66.382881 12.236644,63.483818 25.000048,62.784470 
	C25.000048,58.105347 25.000034,53.350288 25.000050,48.595230 
	C25.000074,41.434151 25.321281,34.253174 24.879435,27.119465 
	C24.615343,22.855667 26.382900,21.226973 30.088940,20.441755 
	C43.158432,17.672647 56.156586,14.530797 69.286102,12.091774 
	C80.938736,9.927104 80.999985,10.256625 80.999939,22.177427 
	C80.999878,38.664566 81.013542,55.151718 80.993317,71.638832 
	C80.984421,78.894455 76.660782,82.992889 69.101540,82.999634 
	C61.447247,83.006470 57.061550,78.962662 57.000671,71.842117 
	C56.920227,62.432625 60.028946,59.776474 72.971939,58.669685 
	C72.971939,50.136078 72.971939,41.534565 72.959564,32.020447 
	C72.947182,28.511820 72.947182,25.915802 72.947182,22.784735 
	C70.513878,23.124517 68.887436,23.252129 67.305626,23.589178 
	C59.016624,25.355370 50.741451,27.186325 42.456650,28.972406 
	C32.656151,31.085247 32.654018,31.075354 33.159355,41.003719 
z"/>
<path fill="#FE5FAA" opacity="1.000000" stroke="none" 
	d="
M33.554604,40.989285 
	C32.654018,31.075354 32.656151,31.085247 42.456650,28.972406 
	C50.741451,27.186325 59.016624,25.355370 67.305626,23.589178 
	C68.887436,23.252129 70.513878,23.124517 72.947182,22.784735 
	C72.947182,25.915802 72.947182,28.511820 72.894135,31.556095 
	C62.680275,34.337162 52.518826,36.667183 42.359077,39.004581 
	C39.553410,39.650063 36.752789,40.317493 33.554604,40.989285 
z"/>
</svg>