<svg xmlns="http://www.w3.org/2000/svg" data-name="Layer 1" viewBox="0 0 32 40" x="0px" y="0px"><path d="M29,13c-.55,0-1,.45-1,1v11c0,1.65-1.35,3-3,3H7c-1.65,0-3-1.35-3-3V7c0-1.65,1.35-3,3-3h11c.55,0,1-.45,1-1s-.45-1-1-1H7c-2.76,0-5,2.24-5,5V25c0,2.76,2.24,5,5,5H25c2.76,0,5-2.24,5-5V14c0-.55-.45-1-1-1Z"/><path d="M7.93,18.1c-.08,.08-.14,.18-.19,.29-.01,.03-.02,.05-.03,.08,0,.03-.02,.05-.03,.08l-1.64,6.19c-.09,.34,0,.71,.26,.96,.19,.19,.45,.29,.71,.29,.08,0,.17-.01,.26-.03l6.19-1.64s.05-.02,.08-.03c.03-.01,.05-.02,.08-.03,.11-.05,.21-.11,.29-.19,0,0,0,0,0,0l13.67-13.67,1.14-1.14c1.65-1.65,1.65-4.32,0-5.97-1.65-1.65-4.33-1.65-5.97,0l-1.14,1.14L7.93,18.1s0,0,0,0Zm.48,5.49l.75-2.85,2.1,2.1-2.85,.75ZM24.15,4.71c.87-.87,2.28-.86,3.14,0,.87,.87,.87,2.28,0,3.14l-.43,.43-3.14-3.14,.43-.43Zm-1.85,1.85l3.14,3.14-12.25,12.25-3.14-3.14L22.31,6.55Z"/><text x="0" y="47" fill="#000000" font-size="5px" font-weight="bold" font-family="'Helvetica Neue', Helvetica, Arial-Unicode, Arial, Sans-serif">Created by Idwar</text><text x="0" y="52" fill="#000000" font-size="5px" font-weight="bold" font-family="'Helvetica Neue', Helvetica, Arial-Unicode, Arial, Sans-serif">from the Noun Project</text></svg>